<mxfile host="884bee3f-11ad-4cef-86e4-f3f27cf4f33d" modified="2020-07-19T15:32:06.361Z" agent="5.0 (Macintosh; Intel Mac OS X 10_13_6) AppleWebKit/537.36 (KHTML, like Gecko) Code/1.47.2 Chrome/78.0.3904.130 Electron/7.3.2 Safari/537.36" etag="cu-McZrXiFwGMkYXm4bP" version="13.1.3">
    <diagram id="6hGFLwfOUW9BJ-s0fimq" name="Page-1">
        <mxGraphModel dx="393" dy="323" grid="1" gridSize="10" guides="1" tooltips="1" connect="1" arrows="1" fold="1" page="1" pageScale="1" pageWidth="827" pageHeight="1169" math="0" shadow="0">
            <root>
                <mxCell id="0"/>
                <mxCell id="1" parent="0"/>
                <mxCell id="2" value="策略设计：即高层设计，帮助我们只通过细节去评估所要处理的整个问题，并让我们能够把握整体。&lt;br&gt;但这些细节并非不变，前期的策略设计只会让我们对复杂度有所了解，帮助我们找到详细设计中的重要部分，指出编程的方向。" style="text;html=1;strokeColor=none;fillColor=none;align=left;verticalAlign=middle;whiteSpace=wrap;rounded=0;" vertex="1" parent="1">
                    <mxGeometry x="20" y="10" width="450" height="60" as="geometry"/>
                </mxCell>
                <mxCell id="3" value="在改进代码的过程中，测试将会引导我们去剖析设计细节。" style="text;html=1;strokeColor=none;fillColor=none;align=left;verticalAlign=middle;whiteSpace=wrap;rounded=0;" vertex="1" parent="1">
                    <mxGeometry x="20" y="90" width="400" as="geometry"/>
                </mxCell>
                <mxCell id="4" value="1、流程图" style="text;html=1;strokeColor=none;fillColor=none;align=center;verticalAlign=middle;whiteSpace=wrap;rounded=0;" vertex="1" parent="1">
                    <mxGeometry x="20" y="120" width="80" height="20" as="geometry"/>
                </mxCell>
                <mxCell id="5" value="read(tickers.txt)" style="rounded=1;whiteSpace=wrap;html=1;" vertex="1" parent="1">
                    <mxGeometry x="10" y="170" width="100" height="30" as="geometry"/>
                </mxCell>
                <mxCell id="6" value="processTickers" style="rounded=1;whiteSpace=wrap;html=1;" vertex="1" parent="1">
                    <mxGeometry x="160" y="130" width="110" height="30" as="geometry"/>
                </mxCell>
                <mxCell id="7" value="reportError" style="rounded=1;whiteSpace=wrap;html=1;" vertex="1" parent="1">
                    <mxGeometry x="160" y="200" width="110" height="30" as="geometry"/>
                </mxCell>
                <mxCell id="8" value="getPrice" style="rounded=1;whiteSpace=wrap;html=1;" vertex="1" parent="1">
                    <mxGeometry x="320" y="160" width="110" height="30" as="geometry"/>
                </mxCell>
                <mxCell id="9" value="printReport" style="rounded=1;whiteSpace=wrap;html=1;" vertex="1" parent="1">
                    <mxGeometry x="440" y="200" width="110" height="30" as="geometry"/>
                </mxCell>
                <mxCell id="11" value="prices" style="shape=cylinder;whiteSpace=wrap;html=1;boundedLbl=1;backgroundOutline=1;" vertex="1" parent="1">
                    <mxGeometry x="480" y="80" width="60" height="80" as="geometry"/>
                </mxCell>
                <mxCell id="14" value="" style="endArrow=classic;html=1;exitX=1;exitY=0.5;exitDx=0;exitDy=0;entryX=0;entryY=0.5;entryDx=0;entryDy=0;" edge="1" parent="1" source="5" target="6">
                    <mxGeometry width="50" height="50" relative="1" as="geometry">
                        <mxPoint x="180" y="210" as="sourcePoint"/>
                        <mxPoint x="220" y="160" as="targetPoint"/>
                    </mxGeometry>
                </mxCell>
                <mxCell id="15" value="" style="endArrow=classic;html=1;exitX=1;exitY=0.5;exitDx=0;exitDy=0;entryX=0;entryY=0.5;entryDx=0;entryDy=0;" edge="1" parent="1" source="5" target="7">
                    <mxGeometry width="50" height="50" relative="1" as="geometry">
                        <mxPoint x="150" y="195" as="sourcePoint"/>
                        <mxPoint x="240" y="170" as="targetPoint"/>
                    </mxGeometry>
                </mxCell>
                <mxCell id="16" value="" style="endArrow=classic;html=1;exitX=1;exitY=0.5;exitDx=0;exitDy=0;entryX=0;entryY=0.5;entryDx=0;entryDy=0;" edge="1" parent="1" source="6" target="8">
                    <mxGeometry width="50" height="50" relative="1" as="geometry">
                        <mxPoint x="160" y="205" as="sourcePoint"/>
                        <mxPoint x="250" y="180" as="targetPoint"/>
                    </mxGeometry>
                </mxCell>
                <mxCell id="17" value="" style="endArrow=classic;html=1;exitX=0.75;exitY=1;exitDx=0;exitDy=0;entryX=0.422;entryY=-0.089;entryDx=0;entryDy=0;entryPerimeter=0;dashed=1;" edge="1" parent="1" source="8">
                    <mxGeometry width="50" height="50" relative="1" as="geometry">
                        <mxPoint x="360" y="210" as="sourcePoint"/>
                        <mxPoint x="397.98" y="235.995" as="targetPoint"/>
                    </mxGeometry>
                </mxCell>
                <mxCell id="18" value="" style="endArrow=classic;html=1;exitX=1;exitY=0.5;exitDx=0;exitDy=0;entryX=0;entryY=0.5;entryDx=0;entryDy=0;" edge="1" parent="1" source="8" target="9">
                    <mxGeometry width="50" height="50" relative="1" as="geometry">
                        <mxPoint x="170" y="215" as="sourcePoint"/>
                        <mxPoint x="260" y="190" as="targetPoint"/>
                    </mxGeometry>
                </mxCell>
                <mxCell id="19" value="" style="endArrow=classic;html=1;exitX=0.5;exitY=1;exitDx=0;exitDy=0;entryX=1;entryY=0.5;entryDx=0;entryDy=0;dashed=1;" edge="1" parent="1" source="9">
                    <mxGeometry width="50" height="50" relative="1" as="geometry">
                        <mxPoint x="180" y="225" as="sourcePoint"/>
                        <mxPoint x="450" y="262.5" as="targetPoint"/>
                    </mxGeometry>
                </mxCell>
                <mxCell id="20" value="" style="endArrow=classic;html=1;exitX=0.75;exitY=0;exitDx=0;exitDy=0;entryX=0.5;entryY=1;entryDx=0;entryDy=0;dashed=1;" edge="1" parent="1" source="9" target="11">
                    <mxGeometry width="50" height="50" relative="1" as="geometry">
                        <mxPoint x="190" y="235" as="sourcePoint"/>
                        <mxPoint x="490" y="200" as="targetPoint"/>
                    </mxGeometry>
                </mxCell>
                <mxCell id="21" value="" style="endArrow=classic;html=1;exitX=0.75;exitY=0;exitDx=0;exitDy=0;entryX=0;entryY=0.5;entryDx=0;entryDy=0;dashed=1;" edge="1" parent="1" source="8" target="11">
                    <mxGeometry width="50" height="50" relative="1" as="geometry">
                        <mxPoint x="200" y="245" as="sourcePoint"/>
                        <mxPoint x="290" y="220" as="targetPoint"/>
                    </mxGeometry>
                </mxCell>
                <mxCell id="22" value="以上就是利用策略设计出整体的逻辑，接下来通过编写测试来完善战略设计。" style="text;html=1;strokeColor=none;fillColor=none;align=left;verticalAlign=middle;whiteSpace=wrap;rounded=0;" vertex="1" parent="1">
                    <mxGeometry x="20" y="285" width="490" height="35" as="geometry"/>
                </mxCell>
                <mxCell id="23" value="战略设计就是进行更细致的设计决策，并实现代码。" style="text;html=1;strokeColor=none;fillColor=none;align=left;verticalAlign=middle;whiteSpace=wrap;rounded=0;" vertex="1" parent="1">
                    <mxGeometry x="20" y="330" width="400" height="20" as="geometry"/>
                </mxCell>
                <mxCell id="24" value="第一步： 创建初始测试列表&lt;br&gt;&lt;ul&gt;&lt;li&gt;若文件有效，read函数调用processTickers函数&lt;/li&gt;&lt;li&gt;若文件无效，read函数调用错误处理器&lt;/li&gt;&lt;li&gt;processTickers为每支股票调用getPrice函数&lt;/li&gt;&lt;li&gt;getPrice函数调用web服务器获取数据&lt;/li&gt;&lt;li&gt;数据获取成功则更新prices集合&lt;/li&gt;&lt;li&gt;数据获取失败则更新error集合&lt;/li&gt;&lt;li&gt;getPrice在最后调用printReport函数&lt;/li&gt;&lt;li&gt;priceReport对结果进行排序后输出&lt;/li&gt;&lt;/ul&gt;" style="text;html=1;strokeColor=none;fillColor=none;align=left;verticalAlign=top;whiteSpace=wrap;rounded=0;" vertex="1" parent="1">
                    <mxGeometry x="20" y="360" width="410" height="160" as="geometry"/>
                </mxCell>
                <mxCell id="25" value="error" style="shape=cylinder;whiteSpace=wrap;html=1;boundedLbl=1;backgroundOutline=1;align=center;" vertex="1" parent="1">
                    <mxGeometry x="390" y="240" width="50" height="50" as="geometry"/>
                </mxCell>
            </root>
        </mxGraphModel>
    </diagram>
</mxfile>